{
	"asset":{
		"version":"2.0",
		"generator":"MAXON CINEMA 4D Studio (R16) 16.011 (#200000219)"
	},
	"scenes":[{
		"nodes":[0,
		1]
	}],
	"nodes":[{
		"name":"Brain",
		"mesh":0,
		"translation":[0.0,
		1.4467686414718629,
		0.0],
		"rotation":[0.8082358241081238,
		-0.4717867076396942,
		0.3523387610912323,
		0.00543659133836627],
		"scale":[1.0,
		1.0,
		1.0]
	},
	{
		"name":"StudioA_Environment",
		"children":[2]
	},
	{
		"name":"Background",
		"mesh":1,
		"translation":[-59.98198318481445,
		0.029999999329447748,
		73.89410400390625],
		"rotation":[0.0,
		-0.38268348574638369,
		0.0,
		0.9238795042037964],
		"scale":[0.9999999403953552,
		1.0,
		0.9999999403953552]
	}],
	"meshes":[{
		"name":"Brain",
		"primitives":[{
			"attributes":{
				"POSITION":1,
				"NORMAL":2,
				"TEXCOORD_0":3
			},
			"indices":0,
			"material":0
		}]
	},
	{
		"name":"Background",
		"primitives":[{
			"attributes":{
				"POSITION":11,
				"NORMAL":12,
				"TEXCOORD_0":13
			},
			"indices":10,
			"material":1
		}]
	}],
	"accessors":[{
		"bufferView":0,
		"type":"SCALAR",
		"componentType":5123,
		"count":33420,
		"max":[33419],
		"byteOffset":0,
		"min":[0]
	},
	{
		"bufferView":1,
		"type":"VEC3",
		"componentType":5126,
		"count":33420,
		"max":[1.235374927520752,
		1.0124602317810059,
		1.6253976821899415],
		"byteOffset":0,
		"min":[-1.235374927520752,
		-1.0837819576263428,
		-1.300236701965332]
	},
	{
		"bufferView":1,
		"type":"VEC3",
		"componentType":5126,
		"count":33420,
		"max":[0.9999365210533142,
		0.9999896287918091,
		0.9988476634025574],
		"byteOffset":12,
		"min":[-0.9999365210533142,
		-0.9998612999916077,
		-0.9998326301574707]
	},
	{
		"bufferView":1,
		"type":"VEC2",
		"componentType":5126,
		"count":33420,
		"max":[1.408331036567688,
		0.9969289302825928],
		"byteOffset":24,
		"min":[0.0,
		0.0]
	},
	{
		"bufferView":2,
		"type":"SCALAR",
		"componentType":5126,
		"count":2,
		"max":[10.0],
		"byteOffset":0,
		"min":[0.0]
	},
	{
		"bufferView":2,
		"type":"VEC3",
		"componentType":5126,
		"count":2,
		"max":[0.0,
		1.4467686414718629,
		0.0],
		"byteOffset":8,
		"min":[0.0,
		1.4467686414718629,
		0.0]
	},
	{
		"bufferView":3,
		"type":"SCALAR",
		"componentType":5126,
		"count":2,
		"max":[10.0],
		"byteOffset":0,
		"min":[0.0]
	},
	{
		"bufferView":3,
		"type":"VEC4",
		"componentType":5126,
		"count":2,
		"max":[0.0,
		0.0,
		0.0,
		-1.0],
		"byteOffset":8,
		"min":[0.0,
		0.0,
		0.0,
		-1.0]
	},
	{
		"bufferView":4,
		"type":"SCALAR",
		"componentType":5126,
		"count":2,
		"max":[10.0],
		"byteOffset":0,
		"min":[0.0]
	},
	{
		"bufferView":4,
		"type":"VEC3",
		"componentType":5126,
		"count":2,
		"max":[1.0,
		1.0,
		1.0],
		"byteOffset":8,
		"min":[1.0,
		1.0,
		1.0]
	},
	{
		"bufferView":5,
		"type":"SCALAR",
		"componentType":5123,
		"count":96,
		"max":[95],
		"byteOffset":0,
		"min":[0]
	},
	{
		"bufferView":6,
		"type":"VEC3",
		"componentType":5126,
		"count":96,
		"max":[26.740577697753908,
		49.99449157714844,
		0.0],
		"byteOffset":0,
		"min":[-63.235233306884769,
		-0.036308594048023227,
		-200.0]
	},
	{
		"bufferView":6,
		"type":"VEC3",
		"componentType":5126,
		"count":96,
		"max":[0.9985610842704773,
		0.9999992847442627,
		0.0],
		"byteOffset":12,
		"min":[0.0012187871616333724,
		0.05362660437822342,
		0.0]
	},
	{
		"bufferView":6,
		"type":"VEC2",
		"componentType":5126,
		"count":96,
		"max":[100.5,
		0.5],
		"byteOffset":24,
		"min":[-24.046817779541017,
		-99.5]
	}],
	"bufferViews":[{
		"buffer":0,
		"byteOffset":0,
		"byteLength":66840,
		"target":34963
	},
	{
		"buffer":0,
		"byteOffset":66840,
		"byteLength":1069440,
		"target":34962,
		"byteStride":32
	},
	{
		"buffer":1,
		"byteOffset":0,
		"byteLength":32
	},
	{
		"buffer":1,
		"byteOffset":32,
		"byteLength":40
	},
	{
		"buffer":1,
		"byteOffset":72,
		"byteLength":32
	},
	{
		"buffer":2,
		"byteOffset":0,
		"byteLength":192,
		"target":34963
	},
	{
		"buffer":2,
		"byteOffset":192,
		"byteLength":3072,
		"target":34962,
		"byteStride":32
	}],
	"buffers":[{
		"uri":"data:application/octet-stream;base64,",
		"byteLength":1136280
	},
	{
		"uri":"data:application/octet-stream;base64,",
		"byteLength":104
	},
	{
		"uri":"data:application/octet-stream;base64,",
		"byteLength":3264
	}],
	"materials":[{
		"pbrMetallicRoughness":{
			"baseColorFactor":[1.0,
			1.0,
			1.0,
			0.0],
			"metallicFactor":1.0,
			"roughnessFactor":1.0
		},
		"doubleSided":false,
		"emissiveFactor":[0.0,
		0.0,
		0.0],
		"alphaMode":"BLEND",
		"name":"fluid yellow"
	},
	{
		"pbrMetallicRoughness":{
			"baseColorFactor":[0.800000011920929,
			0.800000011920929,
			0.800000011920929,
			1.0],
			"metallicFactor":1.0,
			"roughnessFactor":1.0
		},
		"doubleSided":false,
		"emissiveFactor":[0.029999999329447748,
		0.029999999329447748,
		0.029999999329447748],
		"alphaMode":"OPAQUE",
		"name":"background"
	}],
	"animations":[{
		"samplers":[{
			"input":4,
			"interpolation":"LINEAR",
			"output":5
		},
		{
			"input":6,
			"interpolation":"LINEAR",
			"output":7
		},
		{
			"input":8,
			"interpolation":"LINEAR",
			"output":9
		}],
		"channels":[{
			"sampler":0,
			"target":{
				"node":0,
				"path":"translation"
			}
		},
		{
			"sampler":1,
			"target":{
				"node":0,
				"path":"rotation"
			}
		},
		{
			"sampler":2,
			"target":{
				"node":0,
				"path":"scale"
			}
		}]
	}]
}