<svg width="512" height="512" viewBox="0 0 512 512" fill="none" xmlns="http://www.w3.org/2000/svg">
  <defs>
    <linearGradient id="metal" x1="0" y1="0" x2="512" y2="0" gradientUnits="userSpaceOnUse">
      <stop stop-color="#e0e0e0"/>
      <stop offset="0.5" stop-color="#b0b0b0"/>
      <stop offset="1" stop-color="#e0e0e0"/>
    </linearGradient>
  </defs>
  <rect width="512" height="512" fill="url(#metal)" />
  <g opacity="0.15">
    <!-- Brushed lines -->
    <line x1="0" y1="20" x2="512" y2="20" stroke="#fff" stroke-width="2"/>
    <line x1="0" y1="40" x2="512" y2="40" stroke="#b0b0b0" stroke-width="1"/>
    <line x1="0" y1="60" x2="512" y2="60" stroke="#fff" stroke-width="1"/>
    <line x1="0" y1="80" x2="512" y2="80" stroke="#b0b0b0" stroke-width="2"/>
    <line x1="0" y1="100" x2="512" y2="100" stroke="#fff" stroke-width="1"/>
    <line x1="0" y1="120" x2="512" y2="120" stroke="#b0b0b0" stroke-width="1"/>
    <!-- Repeat as needed for more lines -->
    <line x1="0" y1="140" x2="512" y2="140" stroke="#fff" stroke-width="2"/>
    <line x1="0" y1="160" x2="512" y2="160" stroke="#b0b0b0" stroke-width="1"/>
    <line x1="0" y1="180" x2="512" y2="180" stroke="#fff" stroke-width="1"/>
    <line x1="0" y1="200" x2="512" y2="200" stroke="#b0b0b0" stroke-width="2"/>
    <line x1="0" y1="220" x2="512" y2="220" stroke="#fff" stroke-width="1"/>
    <line x1="0" y1="240" x2="512" y2="240" stroke="#b0b0b0" stroke-width="1"/>
    <line x1="0" y1="260" x2="512" y2="260" stroke="#fff" stroke-width="2"/>
    <line x1="0" y1="280" x2="512" y2="280" stroke="#b0b0b0" stroke-width="1"/>
    <line x1="0" y1="300" x2="512" y2="300" stroke="#fff" stroke-width="1"/>
    <line x1="0" y1="320" x2="512" y2="320" stroke="#b0b0b0" stroke-width="2"/>
    <line x1="0" y1="340" x2="512" y2="340" stroke="#fff" stroke-width="1"/>
    <line x1="0" y1="360" x2="512" y2="360" stroke="#b0b0b0" stroke-width="1"/>
    <line x1="0" y1="380" x2="512" y2="380" stroke="#fff" stroke-width="2"/>
    <line x1="0" y1="400" x2="512" y2="400" stroke="#b0b0b0" stroke-width="1"/>
    <line x1="0" y1="420" x2="512" y2="420" stroke="#fff" stroke-width="1"/>
    <line x1="0" y1="440" x2="512" y2="440" stroke="#b0b0b0" stroke-width="2"/>
    <line x1="0" y1="460" x2="512" y2="460" stroke="#fff" stroke-width="1"/>
    <line x1="0" y1="480" x2="512" y2="480" stroke="#b0b0b0" stroke-width="1"/>
    <line x1="0" y1="500" x2="512" y2="500" stroke="#fff" stroke-width="2"/>
  </g>
</svg>